<svg xmlns="http://www.w3.org/2000/svg" xmlns:xlink="http://www.w3.org/1999/xlink" width="500" zoomAndPan="magnify" viewBox="0 0 375 374.999991" height="500" preserveAspectRatio="xMidYMid meet" version="1.2"><defs/><g id="0c5e4c7eb8"><rect x="0" width="375" y="0" height="374.999991" style="fill:#ffffff;fill-opacity:1;stroke:none;"/><rect x="0" width="375" y="0" height="374.999991" style="fill:#ffffff;fill-opacity:1;stroke:none;"/><g style="fill:#05df72;fill-opacity:1;"><g transform="translate(156.699457, 314.809302)"><path style="stroke:none" d="M 216.296875 -243.859375 C 216.992188 -243.859375 217.34375 -243.507812 217.34375 -242.8125 C 217.34375 -241.882812 216.992188 -241.421875 216.296875 -241.421875 C 212.347656 -241.421875 208.921875 -240.023438 206.015625 -237.234375 C 203.109375 -234.441406 201.65625 -231.070312 201.65625 -227.125 L 201.65625 0 C 201.65625 0.695312 201.304688 1.046875 200.609375 1.046875 L 198.15625 1.046875 C 197.695312 1.046875 197.347656 0.929688 197.109375 0.703125 L 41.515625 -226.421875 C 39.191406 -229.441406 36.285156 -232.347656 32.796875 -235.140625 L 32.796875 -15.703125 C 32.796875 -11.742188 34.191406 -8.3125 36.984375 -5.40625 C 39.773438 -2.5 43.144531 -1.046875 47.09375 -1.046875 C 48.03125 -1.046875 48.5 -0.695312 48.5 0 C 48.5 0.695312 48.03125 1.046875 47.09375 1.046875 L 15.703125 1.046875 C 15.003906 1.046875 14.65625 0.695312 14.65625 0 C 14.65625 -0.695312 15.003906 -1.046875 15.703125 -1.046875 C 19.890625 -1.046875 23.378906 -2.5 26.171875 -5.40625 C 28.960938 -8.3125 30.359375 -11.742188 30.359375 -15.703125 L 30.359375 -236.53125 C 25.003906 -239.789062 20.117188 -241.421875 15.703125 -241.421875 C 15.003906 -241.421875 14.65625 -241.882812 14.65625 -242.8125 C 14.65625 -243.507812 15.003906 -243.859375 15.703125 -243.859375 L 75.703125 -243.859375 C 76.171875 -243.859375 76.519531 -243.742188 76.75 -243.515625 L 199.5625 -64.890625 L 199.5625 -227.125 C 199.5625 -231.070312 198.101562 -234.441406 195.1875 -237.234375 C 192.28125 -240.023438 188.851562 -241.421875 184.90625 -241.421875 C 184.207031 -241.421875 183.859375 -241.882812 183.859375 -242.8125 C 183.859375 -243.507812 184.207031 -243.859375 184.90625 -243.859375 Z M 216.296875 -243.859375 "/></g></g><g style="fill:#05df72;fill-opacity:1;"><g transform="translate(1.27318, 315.484844)"><path style="stroke:none" d="M 232.703125 -1.046875 C 233.398438 -1.046875 233.75 -0.695312 233.75 0 C 233.75 0.925781 233.398438 1.390625 232.703125 1.390625 L 161.875 1.390625 C 161.175781 1.390625 160.828125 0.925781 160.828125 0 C 160.828125 -0.695312 161.175781 -1.046875 161.875 -1.046875 C 165.59375 -1.046875 168.269531 -2.328125 169.90625 -4.890625 C 171.757812 -7.679688 171.875 -11.164062 170.25 -15.34375 L 147.21875 -73.609375 L 49.546875 -73.609375 L 26.171875 -15 C 24.535156 -11.050781 24.648438 -7.679688 26.515625 -4.890625 C 28.378906 -2.328125 31.050781 -1.046875 34.53125 -1.046875 C 35.46875 -1.046875 35.9375 -0.695312 35.9375 0 C 35.9375 0.695312 35.46875 1.046875 34.53125 1.046875 L 3.140625 1.046875 C 2.441406 1.046875 2.09375 0.695312 2.09375 0 C 2.09375 -0.695312 2.441406 -1.046875 3.140625 -1.046875 C 7.328125 -1.046875 11.453125 -2.5 15.515625 -5.40625 C 19.585938 -8.3125 22.441406 -11.859375 24.078125 -16.046875 L 47.796875 -75.015625 C 47.796875 -75.242188 47.796875 -75.359375 47.796875 -75.359375 C 48.023438 -75.585938 48.023438 -75.585938 47.796875 -75.359375 C 47.796875 -75.359375 47.910156 -75.472656 48.140625 -75.703125 C 48.378906 -75.703125 48.5 -75.703125 48.5 -75.703125 C 48.5 -75.703125 48.613281 -75.703125 48.84375 -75.703125 L 146.171875 -75.703125 L 97.34375 -198.515625 C 97.101562 -198.742188 97.101562 -198.972656 97.34375 -199.203125 L 116.875 -248.40625 C 116.875 -248.40625 116.875 -248.519531 116.875 -248.75 C 116.875 -248.75 116.988281 -248.75 117.21875 -248.75 C 117.21875 -248.976562 117.21875 -249.09375 117.21875 -249.09375 C 117.21875 -249.09375 117.335938 -249.09375 117.578125 -249.09375 C 117.578125 -249.09375 117.632812 -249.09375 117.75 -249.09375 C 117.863281 -249.09375 117.921875 -249.09375 117.921875 -249.09375 C 118.148438 -249.332031 118.148438 -249.332031 117.921875 -249.09375 C 117.921875 -249.332031 118.035156 -249.453125 118.265625 -249.453125 C 118.265625 -249.453125 118.265625 -249.332031 118.265625 -249.09375 C 118.503906 -249.09375 118.625 -249.09375 118.625 -249.09375 C 118.851562 -248.863281 118.96875 -248.75 118.96875 -248.75 C 118.96875 -248.75 118.96875 -248.691406 118.96875 -248.578125 C 118.96875 -248.460938 118.96875 -248.40625 118.96875 -248.40625 L 212.109375 -16.046875 C 213.742188 -11.859375 216.535156 -8.3125 220.484375 -5.40625 C 224.441406 -2.5 228.515625 -1.046875 232.703125 -1.046875 Z M 232.703125 -1.046875 "/></g></g></g></svg>